# xmcd
#
# Track frame offsets:
#	150
#	18032
#	41227
#	56927
#	78310
#	101852
#	112960
#	127630
#	138222
#	152790
#
# Disc length: 2268 seconds
#
# Revision: 2
# Processed by: cddbd v1.4PL0 Copyright (c) Steve Scherf et al.
# Submitted via: EasyCDDAExtractor 5.0.7
#
DISCID=7908da0a
DTITLE=BB King - BB King in London
DYEAR=1971
DGENRE=Blues
TTITLE0=Caldonia
TTITLE1=Blue Shadows
TTITLE2=Alexis' Boogie
TTITLE3=We Can't Agree
TTITLE4=Ghetto Woman
TTITLE5=Wet Hayshark
TTITLE6=Part-Time Love
TTITLE7=Power of the Blues
TTITLE8=Ain't Nobody Home
TTITLE9=May I Have a Talk With You
EXTD=
EXTT0=
EXTT1=
EXTT2=
EXTT3=
EXTT4=
EXTT5=
EXTT6=
EXTT7=
EXTT8=
EXTT9=
PLAYORDER=
